<svg width="512" height="512" viewBox="0 0 512 512" fill="none" xmlns="http://www.w3.org/2000/svg">
<g clip-path="url(#clip0)">
<circle cx="246.043" cy="249" r="245" fill="#1A2B63"/>
<g clip-path="url(#clip1)">
<path d="M269.288 508.406H34.6644C28.2663 508.406 24 504.139 24 497.74V476.411C24 470.012 28.2663 465.746 34.6644 465.746H269.288C275.687 465.746 279.952 470.012 279.952 476.411V497.74C279.953 504.139 275.687 508.406 269.288 508.406Z" fill="#F6B545"/>
<path d="M226.629 476.411H24C24 470.012 28.2663 465.747 34.6644 465.747H226.629V476.411Z" fill="#FFCB5B"/>
<path d="M226.629 476.411V487.075C226.629 493.474 222.363 497.74 215.965 497.74H24C24 504.139 28.2663 508.404 34.6644 508.404H215.964H269.288C275.687 508.404 279.952 504.138 279.952 497.74V476.41H226.629V476.411Z" fill="#F19920"/>
<path d="M55.9939 497.74V481.742C55.9939 478.543 53.8612 476.41 50.6618 476.41C47.4623 476.41 45.3296 478.543 45.3296 481.742V497.74" fill="#F19920"/>
<path d="M87.9881 497.74V481.742C87.9881 478.543 85.8554 476.41 82.6559 476.41C79.4564 476.41 77.3237 478.543 77.3237 481.742V497.74" fill="#F19920"/>
<path d="M119.982 497.74V481.742C119.982 478.543 117.849 476.41 114.65 476.41C111.45 476.41 109.317 478.543 109.317 481.742V497.74" fill="#F19920"/>
<path d="M151.976 497.74V481.742C151.976 478.543 149.843 476.41 146.644 476.41C143.444 476.41 141.312 478.543 141.312 481.742V497.74" fill="#F19920"/>
<path d="M183.97 497.74V481.742C183.97 478.543 181.837 476.41 178.638 476.41C175.438 476.41 173.306 478.543 173.306 481.742V497.74" fill="#F19920"/>
<path d="M215.965 497.74V481.742C215.965 478.543 213.832 476.41 210.633 476.41C207.433 476.41 205.301 478.543 205.301 481.742V497.74" fill="#F19920"/>
<path d="M290.617 465.746H55.9939C49.595 465.746 45.3296 461.48 45.3296 455.082V433.752C45.3296 427.353 49.5959 423.088 55.9939 423.088H290.617C297.016 423.088 301.281 427.354 301.281 433.752V455.082C301.281 461.481 297.016 465.746 290.617 465.746Z" fill="#F6B545"/>
<path d="M247.959 433.752H45.3296C45.3296 427.353 49.5959 423.088 55.9939 423.088H247.959V433.752Z" fill="#FFCB5B"/>
<path d="M247.959 433.752V444.416C247.959 450.815 243.692 455.081 237.294 455.081H45.3296C45.3296 461.48 49.5959 465.745 55.9939 465.745H237.293H290.617C297.016 465.745 301.281 461.479 301.281 455.081V433.751H247.959V433.752Z" fill="#F19920"/>
<path d="M77.3235 455.082V439.084C77.3235 435.885 75.1908 433.752 71.9914 433.752C68.7919 433.752 66.6592 435.885 66.6592 439.084V455.082" fill="#F19920"/>
<path d="M109.318 455.082V439.084C109.318 435.885 107.185 433.752 103.986 433.752C100.786 433.752 98.6533 435.885 98.6533 439.084V455.082" fill="#F19920"/>
<path d="M141.311 455.082V439.084C141.311 435.885 139.179 433.752 135.979 433.752C132.78 433.752 130.647 435.885 130.647 439.084V455.082" fill="#F19920"/>
<path d="M173.305 455.082V439.084C173.305 435.885 171.173 433.752 167.973 433.752C164.774 433.752 162.641 435.885 162.641 439.084V455.082" fill="#F19920"/>
<path d="M205.3 455.082V439.084C205.3 435.885 203.167 433.752 199.967 433.752C196.768 433.752 194.635 435.885 194.635 439.084V455.082" fill="#F19920"/>
<path d="M237.294 455.082V439.084C237.294 435.885 235.161 433.752 231.962 433.752C228.762 433.752 226.629 435.885 226.629 439.084V455.082" fill="#F19920"/>
<path d="M311.947 380.429H77.3235C70.9246 380.429 66.6592 376.162 66.6592 369.764V348.435C66.6592 342.036 70.9255 337.771 77.3235 337.771H311.947C318.346 337.771 322.611 342.037 322.611 348.435V369.764C322.611 376.163 318.346 380.429 311.947 380.429Z" fill="#F6B545"/>
<path d="M269.287 348.435H66.6582C66.6582 342.036 70.9245 337.771 77.3226 337.771H269.287V348.435Z" fill="#FFCB5B"/>
<path d="M269.287 348.435V359.099C269.287 365.498 265.021 369.763 258.623 369.763H66.6582C66.6582 376.162 70.9245 380.427 77.3226 380.427H258.623H311.947C318.346 380.427 322.611 376.161 322.611 369.763V348.434H269.287V348.435Z" fill="#F19920"/>
<path d="M98.6531 369.764V353.767C98.6531 350.567 96.5205 348.435 93.321 348.435C90.1215 348.435 87.9888 350.567 87.9888 353.767V369.764" fill="#F19920"/>
<path d="M130.647 369.764V353.767C130.647 350.567 128.515 348.435 125.315 348.435C122.116 348.435 119.983 350.567 119.983 353.767V369.764" fill="#F19920"/>
<path d="M162.641 369.764V353.767C162.641 350.567 160.508 348.435 157.309 348.435C154.109 348.435 151.977 350.567 151.977 353.767V369.764" fill="#F19920"/>
<path d="M194.635 369.764V353.767C194.635 350.567 192.502 348.435 189.303 348.435C186.103 348.435 183.971 350.567 183.971 353.767V369.764" fill="#F19920"/>
<path d="M226.629 369.764V353.767C226.629 350.567 224.496 348.435 221.297 348.435C218.098 348.435 215.965 350.567 215.965 353.767V369.764" fill="#F19920"/>
<path d="M258.623 369.764V353.767C258.623 350.567 256.49 348.435 253.291 348.435C250.091 348.435 247.958 350.567 247.958 353.767V369.764" fill="#F19920"/>
<path d="M290.617 337.77H55.9939C49.595 337.77 45.3296 333.503 45.3296 327.105V305.776C45.3296 299.377 49.5959 295.111 55.9939 295.111H290.617C297.016 295.111 301.281 299.378 301.281 305.776V327.105C301.281 333.503 297.016 337.77 290.617 337.77Z" fill="#F6B545"/>
<path d="M247.959 305.776H45.3296C45.3296 299.377 49.5959 295.111 55.9939 295.111H247.959V305.776Z" fill="#FFCB5B"/>
<path d="M247.959 305.776V316.441C247.959 322.84 243.692 327.105 237.294 327.105H45.3296C45.3296 333.504 49.5959 337.769 55.9939 337.769H237.293H290.617C297.016 337.769 301.281 333.503 301.281 327.105V305.775H247.959V305.776Z" fill="#F19920"/>
<path d="M77.3235 327.105V311.108C77.3235 307.908 75.1908 305.775 71.9914 305.775C68.7919 305.775 66.6592 307.908 66.6592 311.108V327.105" fill="#F19920"/>
<path d="M109.318 327.105V311.108C109.318 307.908 107.185 305.775 103.986 305.775C100.786 305.775 98.6533 307.908 98.6533 311.108V327.105" fill="#F19920"/>
<path d="M141.311 327.105V311.108C141.311 307.908 139.179 305.775 135.979 305.775C132.78 305.775 130.647 307.908 130.647 311.108V327.105" fill="#F19920"/>
<path d="M173.305 327.105V311.108C173.305 307.908 171.173 305.775 167.973 305.775C164.774 305.775 162.641 307.908 162.641 311.108V327.105" fill="#F19920"/>
<path d="M205.3 327.105V311.108C205.3 307.908 203.167 305.775 199.967 305.775C196.768 305.775 194.635 307.908 194.635 311.108V327.105" fill="#F19920"/>
<path d="M237.294 327.105V311.108C237.294 307.908 235.161 305.775 231.962 305.775C228.762 305.775 226.629 307.908 226.629 311.108V327.105" fill="#F19920"/>
<path d="M269.288 423.088H34.6644C28.2663 423.088 24 418.822 24 412.423V391.093C24 384.694 28.2663 380.429 34.6644 380.429H269.288C275.687 380.429 279.952 384.695 279.952 391.093V412.423C279.953 418.822 275.687 423.088 269.288 423.088Z" fill="#F6B545"/>
<path d="M226.629 391.094H24C24 384.695 28.2663 380.43 34.6644 380.43H226.629V391.094Z" fill="#FFCB5B"/>
<path d="M226.629 391.094V401.758C226.629 408.157 222.363 412.422 215.965 412.422H24C24 418.821 28.2663 423.087 34.6644 423.087H215.964H269.288C275.687 423.087 279.952 418.82 279.952 412.422V391.093H226.629V391.094Z" fill="#F19920"/>
<path d="M55.9939 412.422V396.425C55.9939 393.225 53.8612 391.093 50.6618 391.093C47.4623 391.093 45.3296 393.225 45.3296 396.425V412.422" fill="#F19920"/>
<path d="M87.9881 412.422V396.425C87.9881 393.225 85.8554 391.093 82.6559 391.093C79.4564 391.093 77.3237 393.225 77.3237 396.425V412.422" fill="#F19920"/>
<path d="M119.982 412.422V396.425C119.982 393.225 117.849 391.093 114.65 391.093C111.45 391.093 109.317 393.225 109.317 396.425V412.422" fill="#F19920"/>
<path d="M151.976 412.422V396.425C151.976 393.225 149.843 391.093 146.644 391.093C143.444 391.093 141.312 393.225 141.312 396.425V412.422" fill="#F19920"/>
<path d="M183.97 412.422V396.425C183.97 393.225 181.837 391.093 178.638 391.093C175.438 391.093 173.306 393.225 173.306 396.425V412.422" fill="#F19920"/>
<path d="M215.965 412.422V396.425C215.965 393.225 213.832 391.093 210.633 391.093C207.433 391.093 205.301 393.225 205.301 396.425V412.422" fill="#F19920"/>
<path d="M471.917 439.084C458.053 429.485 450.587 413.489 450.587 396.426C450.587 331.371 424.992 269.515 379.134 223.658L333.276 177.8V145.806L370.602 98.8812C373.802 94.6149 375.935 89.2827 375.935 83.9496C375.935 71.1517 365.271 60.4873 352.473 60.4873H311.947L301.283 81.8169L279.953 60.4873H228.762C215.964 60.4873 205.3 71.1517 205.3 83.9496C205.3 89.2818 207.433 94.614 210.632 98.8803L247.958 145.805V177.799L202.1 223.657C156.242 269.515 130.647 331.37 130.647 396.425C130.647 413.488 123.182 429.485 109.317 439.083C95.4522 448.681 87.9873 464.678 87.9873 481.741C87.9873 496.672 99.7185 508.403 114.649 508.403H466.584C481.515 508.403 493.246 496.672 493.246 481.741C493.247 464.68 485.782 448.682 471.917 439.084Z" fill="#C97629"/>
<path d="M471.917 439.084C458.053 428.42 450.587 412.422 450.587 395.359C451.654 328.171 420.726 265.249 373.801 217.259L333.275 177.799V145.805L370.602 98.8803C377.001 91.4154 378.066 80.7501 372.734 71.1517C368.468 63.6868 359.936 60.4873 351.405 60.4873C343.94 60.4873 339.674 69.019 341.806 75.418C342.873 77.5506 343.939 80.7501 343.939 83.9496C343.939 89.2818 341.806 94.614 338.607 98.8803L301.281 145.805V177.799H247.957L237.293 188.463H311.946L351.406 227.923C395.131 271.648 412.194 331.371 407.929 392.159C406.862 410.289 414.328 427.353 428.192 438.017C429.258 439.084 430.324 440.15 431.391 440.15C447.388 457.213 433.524 486.008 408.996 486.008H89.0547C91.1874 497.739 101.853 507.337 114.65 507.337H423.926H450.588H466.585C481.515 507.338 493.246 495.607 493.246 480.676V478.544C493.246 462.546 484.715 448.682 471.917 439.084Z" fill="#B06328"/>
<path d="M338.609 177.8H242.626C234.094 177.8 226.628 170.335 226.628 161.802C226.628 153.27 234.093 145.805 242.626 145.805H338.608C347.14 145.805 354.605 153.27 354.605 161.802C354.605 170.335 347.14 177.8 338.609 177.8Z" fill="#FFCB5B"/>
<path d="M242.626 145.806H295.949C299.149 145.806 301.282 147.938 301.282 151.138C301.282 154.337 299.149 156.47 295.949 156.47H242.626C239.426 156.47 237.293 154.337 237.293 151.138C237.293 147.939 239.427 145.806 242.626 145.806Z" fill="#FFE278"/>
<path d="M338.609 145.806H333.277V156.47C333.277 162.869 329.01 167.134 322.612 167.134H227.696C229.829 173.533 236.228 177.799 242.627 177.799H338.609C347.14 177.799 354.606 170.334 354.606 161.801C354.606 153.269 347.14 145.806 338.609 145.806Z" fill="#F6B545"/>
<path d="M306.614 167.135H338.608C341.808 167.135 343.941 169.267 343.941 172.467C343.941 175.666 341.808 177.799 338.608 177.799H306.614C303.415 177.799 301.282 175.666 301.282 172.467C301.281 169.267 303.415 167.135 306.614 167.135Z" fill="#F19920"/>
<path d="M301.283 177.799H279.953V263.116H301.283V177.799Z" fill="#F6B545"/>
<path d="M279.953 177.799V188.464H290.617V263.116H301.282V188.464V177.799H279.953Z" fill="#F19920"/>
<path d="M290.617 423.087C337.737 423.087 375.935 384.889 375.935 337.77C375.935 290.65 337.737 252.452 290.617 252.452C243.497 252.452 205.299 290.65 205.299 337.77C205.299 384.889 243.497 423.087 290.617 423.087Z" fill="#F6B545"/>
<path d="M355.672 283.38C368.47 298.311 375.935 316.441 375.935 337.77C375.935 384.695 337.542 423.088 290.617 423.088C269.287 423.088 251.157 415.623 236.228 402.825C252.225 422.021 275.687 433.752 301.282 433.752C348.207 433.752 386.6 395.359 386.6 348.435C386.599 321.773 374.868 298.311 355.672 283.38Z" fill="#B06328"/>
<path d="M290.617 412.424C331.847 412.424 365.27 379 365.27 337.77C365.27 296.541 331.847 263.117 290.617 263.117C249.387 263.117 215.964 296.541 215.964 337.77C215.964 379 249.387 412.424 290.617 412.424Z" fill="#FFCB5B"/>
<path d="M365.27 337.771C365.27 379.363 332.21 412.424 290.617 412.424V423.088C337.542 423.088 375.935 384.695 375.935 337.771H365.27Z" fill="#F19920"/>
<path d="M290.617 263.116V252.452C243.692 252.452 205.299 290.845 205.299 337.77H215.964C215.965 296.177 249.025 263.116 290.617 263.116Z" fill="#FFE27A"/>
<path d="M301.282 327.105H279.952C273.553 327.105 269.288 322.839 269.288 316.441C269.288 310.042 273.554 305.776 279.952 305.776H311.946C318.345 305.776 322.61 301.51 322.61 295.112C322.61 288.713 318.344 284.448 311.946 284.448H301.282C301.282 278.049 297.015 273.783 290.617 273.783C284.218 273.783 279.953 278.049 279.953 284.448C261.823 284.448 247.959 298.311 247.959 316.442C247.959 334.572 261.823 348.436 279.953 348.436H301.283C307.682 348.436 311.947 352.702 311.947 359.1C311.947 365.498 307.681 369.764 301.283 369.764H269.289C262.89 369.764 258.624 374.031 258.624 380.429C258.624 386.828 262.891 391.093 269.289 391.093H279.953C279.953 397.492 284.219 401.757 290.617 401.757C297.016 401.757 301.282 397.491 301.282 391.093C319.412 391.093 333.276 377.229 333.276 359.099C333.276 340.969 319.412 327.105 301.282 327.105Z" fill="#E78825"/>
<path d="M93 241.999C91.713 241.999 90.569 241.178 90.158 239.959C84.402 222.905 80.094 218.597 63.041 212.842C61.821 212.43 61 211.286 61 209.999C61 208.712 61.821 207.568 63.04 207.157C80.093 201.402 84.401 197.093 90.157 180.04C90.569 178.821 91.712 178 92.999 178C94.286 178 95.43 178.821 95.841 180.04C101.597 197.093 105.905 201.402 122.958 207.157C124.177 207.569 124.999 208.712 124.999 209.999C124.999 211.286 124.178 212.43 122.958 212.842C105.905 218.597 101.597 222.905 95.841 239.959C95.431 241.178 94.287 241.999 93 241.999Z" fill="#FFD00D"/>
<path d="M455 270C454.638 270 454.316 269.769 454.201 269.426C452.582 264.63 451.37 263.418 446.574 261.799C446.231 261.684 446 261.362 446 261C446 260.638 446.231 260.316 446.574 260.201C451.37 258.582 452.582 257.37 454.201 252.574C454.316 252.231 454.638 252 455 252C455.362 252 455.684 252.231 455.799 252.574C457.418 257.37 458.63 258.582 463.426 260.201C463.769 260.316 464 260.638 464 261C464 261.362 463.769 261.684 463.426 261.799C458.63 263.418 457.418 264.63 455.799 269.426C455.684 269.769 455.362 270 455 270Z" fill="#FFD00D"/>
<path d="M412.5 172C411.475 172 410.562 171.346 410.234 170.375C405.648 156.785 402.214 153.352 388.625 148.766C387.655 148.437 387 147.526 387 146.5C387 145.475 387.655 144.563 388.625 144.235C402.215 139.649 405.648 136.215 410.234 122.626C410.562 121.654 411.474 121 412.5 121C413.526 121 414.436 121.654 414.766 122.626C419.352 136.215 422.786 139.648 436.375 144.235C437.345 144.563 438 145.475 438 146.5C438 147.526 437.345 148.437 436.375 148.766C422.785 153.353 419.352 156.785 414.766 170.375C414.436 171.346 413.525 172 412.5 172Z" fill="white"/>
<path d="M130.5 108C130.078 108 129.702 107.731 129.567 107.331C127.679 101.735 126.265 100.321 120.669 98.4331C120.27 98.2976 120 97.9225 120 97.5C120 97.0779 120.27 96.7024 120.669 96.5673C126.265 94.679 127.679 93.265 129.567 87.6695C129.702 87.2693 130.078 87 130.5 87C130.922 87 131.297 87.2693 131.433 87.6695C133.321 93.265 134.735 94.6786 140.331 96.5673C140.73 96.7024 141 97.0779 141 97.5C141 97.9225 140.73 98.2976 140.331 98.4331C134.735 100.322 133.321 101.735 131.433 107.331C131.297 107.731 130.922 108 130.5 108Z" fill="white"/>
</g>
</g>
<defs>
<clipPath id="clip0">
<rect width="512" height="512" fill="white"/>
</clipPath>
<clipPath id="clip1">
<rect width="469.246" height="469.246" fill="white" transform="translate(24 49.8232)"/>
</clipPath>
</defs>
</svg>
