<svg width="512" height="512" viewBox="0 0 512 512" fill="none" xmlns="http://www.w3.org/2000/svg">
<path d="M256 512C397.385 512 512 397.385 512 256C512 114.615 397.385 0 256 0C114.615 0 0 114.615 0 256C0 397.385 114.615 512 256 512Z" fill="#1A2B63"/>
<path d="M76.8881 194.118C75.2995 249.56 75.8422 305.002 78.5162 360.443C79.439 378.854 95.3849 394.414 113.783 395.029C118.63 395.184 123.243 394.252 127.402 392.428C124.415 326.084 123.609 259.74 124.983 193.396C108.951 193.6 92.9202 193.841 76.8881 194.118V194.118Z" fill="url(#paint0_linear)"/>
<path d="M386.567 193.397C387.941 259.741 387.135 326.085 384.147 392.429C388.306 394.252 392.92 395.185 397.766 395.03C416.165 394.415 432.111 378.855 433.034 360.444C435.708 305.003 436.25 249.561 434.662 194.119C418.631 193.841 402.599 193.6 386.567 193.397V193.397Z" fill="url(#paint1_linear)"/>
<path d="M106.616 145.114C103.545 217.144 103.464 289.172 106.371 361.202C106.929 374.816 115.614 386.785 127.416 392.431C134.847 389.175 140.88 383.06 143.885 374.98C152.726 351.183 162.022 327.237 171.584 303.189C199.874 293.999 228.283 284.619 256.73 275.206C284.549 284.618 312.33 293.995 339.993 303.189C349.555 327.237 358.852 351.183 367.693 374.98C370.697 383.06 376.731 389.175 384.161 392.431C395.965 386.785 404.649 374.816 405.206 361.202C408.114 289.172 408.032 217.144 404.962 145.114C305.513 142.504 206.064 142.504 106.616 145.114V145.114Z" fill="url(#paint2_linear)"/>
<path d="M311.819 303.325C274.455 303.475 237.092 303.475 199.729 303.325C199.637 289.24 199.586 275.155 199.576 261.07C237.041 261.086 274.506 261.086 311.971 261.07C311.961 275.155 311.911 289.24 311.819 303.325Z" fill="url(#paint3_linear)"/>
<path d="M76.9021 194.111C75.6587 235.777 110.866 269.867 153.691 270.102C196.541 270.246 231.294 235.475 231.439 192.59C231.427 149.716 197.778 115.027 156.157 116.021C114.561 117.086 78.2501 152.456 76.9021 194.111V194.111Z" fill="url(#paint4_linear)"/>
<path d="M280.129 192.59C280.273 235.475 315.026 270.246 357.877 270.102C400.701 269.868 435.908 235.777 434.665 194.111C433.317 152.456 397.006 117.086 355.411 116.021C313.79 115.027 280.142 149.716 280.129 192.59V192.59Z" fill="url(#paint5_linear)"/>
<path d="M76.9021 194.111C75.6587 235.777 110.866 269.867 153.691 270.102C196.541 270.246 231.294 235.475 231.439 192.59C231.427 149.716 197.778 115.027 156.157 116.021C114.561 117.086 78.2501 152.456 76.9021 194.111V194.111Z" fill="url(#paint6_linear)"/>
<path d="M280.129 192.59C280.273 235.475 315.026 270.246 357.877 270.102C400.701 269.868 435.908 235.777 434.665 194.111C433.317 152.456 397.006 117.086 355.411 116.021C313.79 115.027 280.142 149.716 280.129 192.59V192.59Z" fill="url(#paint7_linear)"/>
<path d="M138.891 149.011C137.955 178.5 137.406 207.99 137.242 237.478C137.228 240.05 139.326 242.129 141.925 242.123C149.767 242.104 157.608 242.087 165.45 242.072C168.049 242.067 170.161 239.968 170.171 237.383C170.288 207.742 170.685 178.102 171.362 148.461C171.42 145.876 169.396 143.812 166.838 143.851C159.117 143.972 151.396 144.108 143.675 144.261C141.116 144.312 138.973 146.44 138.891 149.011V149.011Z" fill="url(#paint8_linear)"/>
<path d="M203.426 180.944C203.35 188.771 203.285 196.598 203.233 204.425C203.217 207.019 201.102 209.13 198.509 209.14C189.123 209.178 179.736 209.226 170.349 209.283C164.927 203.856 159.526 198.445 154.149 193.051C159.7 187.549 165.248 182.039 170.788 176.522C180.126 176.424 189.464 176.344 198.803 176.277C201.383 176.261 203.451 178.35 203.426 180.944V180.944Z" fill="url(#paint9_linear)"/>
<path d="M154.151 193.054C148.6 198.555 143.047 204.046 137.496 209.525C128.11 209.604 118.723 209.693 109.335 209.791C106.743 209.818 104.678 207.77 104.728 205.216C104.879 197.508 105.064 189.801 105.283 182.093C105.356 179.539 107.509 177.43 110.087 177.383C119.426 177.216 128.764 177.066 138.103 176.931C143.424 182.285 148.774 187.66 154.151 193.054Z" fill="url(#paint10_linear)"/>
<path d="M199.581 261.07C176.191 261.083 157.213 279.898 157.493 303.091C157.791 326.281 177.015 345.38 200.132 345.579C223.253 345.767 241.975 326.821 241.972 303.43C241.943 280.038 222.974 261.072 199.581 261.07Z" fill="url(#paint11_linear)"/>
<path d="M199.607 275.157C184.017 275.142 171.417 287.684 171.577 303.185C171.741 318.684 184.506 331.388 199.975 331.496C215.446 331.602 227.933 318.999 227.896 303.412C227.85 287.823 215.198 275.178 199.607 275.157Z" fill="url(#paint12_linear)"/>
<path d="M206.868 317.435C191.359 317.356 178.615 304.674 178.508 289.161C178.497 287.44 178.651 285.759 178.939 284.124C174.305 289.123 171.502 295.809 171.576 303.175C171.74 318.675 184.505 331.378 199.974 331.487C213.734 331.58 225.113 321.626 227.453 308.459C222.331 314.012 215.017 317.473 206.868 317.435Z" fill="url(#paint13_linear)"/>
<path d="M342.728 157.838C342.889 165.593 349.268 171.946 357.001 172.045C364.734 172.144 370.852 165.982 370.628 158.268C370.404 150.553 363.974 144.169 356.304 144.031C348.634 143.892 342.568 150.083 342.728 157.838V157.838Z" fill="url(#paint14_linear)"/>
<path d="M343.694 228.033C343.74 235.788 350.077 242.083 357.873 242.097C365.669 242.111 371.966 235.87 371.903 228.156C371.839 220.441 365.451 214.137 357.673 214.082C349.896 214.029 343.649 220.278 343.694 228.033V228.033Z" fill="url(#paint15_linear)"/>
<path d="M378.468 193.289C378.615 201.001 385.008 207.306 392.785 207.383C400.561 207.458 406.753 201.318 406.566 193.661C406.379 186.003 399.917 179.678 392.182 179.548C384.445 179.418 378.323 185.577 378.468 193.289Z" fill="url(#paint16_linear)"/>
<path d="M308.224 192.688C308.286 200.47 314.626 206.802 322.403 206.839C330.179 206.875 336.422 200.624 336.321 192.869C336.22 185.112 329.846 178.761 322.109 178.698C314.374 178.634 308.163 184.904 308.224 192.688V192.688Z" fill="url(#paint17_linear)"/>
<path d="M311.977 261.07C288.584 261.072 269.614 280.038 269.586 303.43C269.582 326.821 288.305 345.767 311.426 345.579C334.543 345.38 353.768 326.281 354.064 303.091C354.344 279.898 335.366 261.084 311.977 261.07V261.07Z" fill="url(#paint18_linear)"/>
<path d="M311.949 275.157C296.357 275.178 283.705 287.823 283.66 303.412C283.624 318.999 296.11 331.602 311.581 331.496C327.051 331.388 339.816 318.684 339.98 303.185C340.14 287.685 327.539 275.142 311.949 275.157Z" fill="url(#paint19_linear)"/>
<path d="M318.741 317.369C303.231 317.467 290.715 304.871 290.749 289.287C290.754 287.56 290.922 285.872 291.223 284.229C286.55 289.268 283.684 296.005 283.66 303.409C283.624 318.996 296.11 331.599 311.581 331.493C325.339 331.399 336.939 321.336 339.467 308.219C334.266 313.791 326.89 317.32 318.741 317.369Z" fill="url(#paint20_linear)"/>
<path d="M203 115.999C201.713 115.999 200.569 115.178 200.158 113.959C194.402 96.905 190.094 92.597 173.041 86.842C171.821 86.43 171 85.286 171 83.999C171 82.712 171.821 81.568 173.04 81.157C190.093 75.402 194.401 71.093 200.157 54.04C200.569 52.821 201.712 52 202.999 52C204.286 52 205.43 52.821 205.841 54.04C211.597 71.093 215.905 75.402 232.958 81.157C234.177 81.569 234.999 82.712 234.999 83.999C234.999 85.286 234.178 86.43 232.958 86.842C215.905 92.597 211.597 96.905 205.841 113.959C205.431 115.178 204.287 115.999 203 115.999Z" fill="#FFD00D"/>
<path d="M332.5 421C332.078 421 331.702 420.731 331.568 420.331C329.679 414.735 328.265 413.321 322.67 411.433C322.269 411.298 322 410.922 322 410.5C322 410.078 322.269 409.702 322.669 409.567C328.265 407.679 329.679 406.265 331.567 400.669C331.702 400.269 332.078 400 332.5 400C332.922 400 333.298 400.269 333.432 400.669C335.321 406.265 336.735 407.679 342.33 409.567C342.73 409.702 343 410.078 343 410.5C343 410.922 342.731 411.298 342.33 411.433C336.735 413.321 335.321 414.735 333.432 420.331C333.298 420.731 332.922 421 332.5 421Z" fill="#FFD00D"/>
<path d="M179.5 462C178.475 462 177.562 461.346 177.234 460.375C172.648 446.785 169.214 443.352 155.625 438.766C154.655 438.437 154 437.526 154 436.5C154 435.475 154.655 434.563 155.625 434.235C169.215 429.649 172.648 426.215 177.234 412.626C177.562 411.654 178.474 411 179.5 411C180.526 411 181.436 411.654 181.766 412.626C186.352 426.215 189.786 429.648 203.375 434.235C204.345 434.563 205 435.475 205 436.5C205 437.526 204.345 438.437 203.375 438.766C189.785 443.353 186.352 446.785 181.766 460.375C181.436 461.346 180.525 462 179.5 462Z" fill="white"/>
<path d="M331 59C330.357 59 329.784 58.5896 329.578 57.9804C326.701 49.4533 324.546 47.2993 316.02 44.4218C315.411 44.2154 315 43.6438 315 43C315 42.3569 315.411 41.7846 316.02 41.5788C324.547 38.7013 326.701 36.5467 329.578 28.0202C329.784 27.4104 330.356 27 331 27C331.644 27 332.215 27.4104 332.422 28.0202C335.299 36.5467 337.454 38.7007 345.98 41.5788C346.589 41.7846 347 42.3569 347 43C347 43.6438 346.589 44.2154 345.98 44.4218C337.453 47.2999 335.299 49.4533 332.422 57.9804C332.215 58.5896 331.643 59 331 59Z" fill="white"/>
<defs>
<linearGradient id="paint0_linear" x1="7.58589" y1="387.833" x2="246.786" y2="148.632" gradientUnits="userSpaceOnUse">
<stop stop-color="#B31DE7"/>
<stop offset="0.3399" stop-color="#CF4EF0"/>
<stop offset="0.7861" stop-color="#F089FB"/>
<stop offset="1" stop-color="#FDA0FF"/>
</linearGradient>
<linearGradient id="paint1_linear" x1="32.3803" y1="660.785" x2="472.427" y2="220.739" gradientUnits="userSpaceOnUse">
<stop stop-color="#B31DE7"/>
<stop offset="0.3399" stop-color="#CF4EF0"/>
<stop offset="0.7861" stop-color="#F089FB"/>
<stop offset="1" stop-color="#FDA0FF"/>
</linearGradient>
<linearGradient id="paint2_linear" x1="-154.365" y1="670.027" x2="478.217" y2="37.4438" gradientUnits="userSpaceOnUse">
<stop stop-color="#B31DE7"/>
<stop offset="0.3399" stop-color="#CF4EF0"/>
<stop offset="0.7861" stop-color="#F089FB"/>
<stop offset="1" stop-color="#FDA0FF"/>
</linearGradient>
<linearGradient id="paint3_linear" x1="172.445" y1="365.451" x2="368.148" y2="169.748" gradientUnits="userSpaceOnUse">
<stop stop-color="#B31DE7"/>
<stop offset="0.3399" stop-color="#CF4EF0"/>
<stop offset="0.7861" stop-color="#F089FB"/>
<stop offset="1" stop-color="#FDA0FF"/>
</linearGradient>
<linearGradient id="paint4_linear" x1="62.5366" y1="286.132" x2="245.478" y2="103.19" gradientUnits="userSpaceOnUse">
<stop stop-color="#FC54FF"/>
<stop offset="1" stop-color="#FDA0FF"/>
</linearGradient>
<linearGradient id="paint5_linear" x1="266.465" y1="283.765" x2="444.723" y2="105.507" gradientUnits="userSpaceOnUse">
<stop stop-color="#FC54FF"/>
<stop offset="1" stop-color="#FDA0FF"/>
</linearGradient>
<linearGradient id="paint6_linear" x1="-9.31019" y1="357.978" x2="283.456" y2="65.2117" gradientUnits="userSpaceOnUse">
<stop stop-color="#FC54FF"/>
<stop offset="0.4062" stop-color="#FD9BFF"/>
<stop offset="1" stop-color="white"/>
</linearGradient>
<linearGradient id="paint7_linear" x1="196.458" y1="353.771" x2="481.729" y2="68.501" gradientUnits="userSpaceOnUse">
<stop stop-color="#FC54FF"/>
<stop offset="0.4062" stop-color="#FD9BFF"/>
<stop offset="1" stop-color="white"/>
</linearGradient>
<linearGradient id="paint8_linear" x1="122.799" y1="224.962" x2="186.335" y2="161.426" gradientUnits="userSpaceOnUse">
<stop stop-color="#364AFF"/>
<stop offset="1" stop-color="#FC54FF"/>
</linearGradient>
<linearGradient id="paint9_linear" x1="153.559" y1="224.837" x2="216.535" y2="161.861" gradientUnits="userSpaceOnUse">
<stop stop-color="#364AFF"/>
<stop offset="1" stop-color="#FC54FF"/>
</linearGradient>
<linearGradient id="paint10_linear" x1="69.2803" y1="247.094" x2="158.735" y2="157.64" gradientUnits="userSpaceOnUse">
<stop stop-color="#364AFF"/>
<stop offset="1" stop-color="#FC54FF"/>
</linearGradient>
<linearGradient id="paint11_linear" x1="136.21" y1="366.85" x2="311.806" y2="191.255" gradientUnits="userSpaceOnUse">
<stop stop-color="#FC54FF"/>
<stop offset="0.4062" stop-color="#FD9BFF"/>
<stop offset="1" stop-color="white"/>
</linearGradient>
<linearGradient id="paint12_linear" x1="160.759" y1="342.305" x2="244.483" y2="258.581" gradientUnits="userSpaceOnUse">
<stop stop-color="#B31DE7"/>
<stop offset="0.3399" stop-color="#CF4EF0"/>
<stop offset="0.7861" stop-color="#F089FB"/>
<stop offset="1" stop-color="#FDA0FF"/>
</linearGradient>
<linearGradient id="paint13_linear" x1="175.689" y1="327.378" x2="241.285" y2="261.782" gradientUnits="userSpaceOnUse">
<stop stop-color="#B31DE7"/>
<stop offset="0.3399" stop-color="#CF4EF0"/>
<stop offset="0.7861" stop-color="#F089FB"/>
<stop offset="1" stop-color="#FDA0FF"/>
</linearGradient>
<linearGradient id="paint14_linear" x1="334.926" y1="179.793" x2="376.918" y2="137.801" gradientUnits="userSpaceOnUse">
<stop stop-color="#364AFF"/>
<stop offset="1" stop-color="#FC54FF"/>
</linearGradient>
<linearGradient id="paint15_linear" x1="335.605" y1="250.265" x2="378.452" y2="207.418" gradientUnits="userSpaceOnUse">
<stop stop-color="#364AFF"/>
<stop offset="1" stop-color="#FC54FF"/>
</linearGradient>
<linearGradient id="paint16_linear" x1="370.688" y1="215.278" x2="412.812" y2="173.154" gradientUnits="userSpaceOnUse">
<stop stop-color="#364AFF"/>
<stop offset="1" stop-color="#FC54FF"/>
</linearGradient>
<linearGradient id="paint17_linear" x1="300.142" y1="214.9" x2="342.884" y2="172.159" gradientUnits="userSpaceOnUse">
<stop stop-color="#364AFF"/>
<stop offset="1" stop-color="#FC54FF"/>
</linearGradient>
<linearGradient id="paint18_linear" x1="247.353" y1="367.526" x2="424.813" y2="190.066" gradientUnits="userSpaceOnUse">
<stop stop-color="#FC54FF"/>
<stop offset="0.4062" stop-color="#FD9BFF"/>
<stop offset="1" stop-color="white"/>
</linearGradient>
<linearGradient id="paint19_linear" x1="272.308" y1="342.719" x2="356.92" y2="258.107" gradientUnits="userSpaceOnUse">
<stop stop-color="#B31DE7"/>
<stop offset="0.3399" stop-color="#CF4EF0"/>
<stop offset="0.7861" stop-color="#F089FB"/>
<stop offset="1" stop-color="#FDA0FF"/>
</linearGradient>
<linearGradient id="paint20_linear" x1="287.392" y1="327.645" x2="353.748" y2="261.289" gradientUnits="userSpaceOnUse">
<stop stop-color="#B31DE7"/>
<stop offset="0.3399" stop-color="#CF4EF0"/>
<stop offset="0.7861" stop-color="#F089FB"/>
<stop offset="1" stop-color="#FDA0FF"/>
</linearGradient>
</defs>
</svg>
