<svg width="512" height="512" viewBox="0 0 512 512" fill="none" xmlns="http://www.w3.org/2000/svg">
<path d="M256 512C391.31 512 501 402.31 501 267C501 131.69 391.31 22 256 22C120.69 22 11 131.69 11 267C11 402.31 120.69 512 256 512Z" fill="#1A2B63"/>
<path d="M273.5 361.794V308.179C271.435 308.685 269.278 308.958 267.057 308.958H244.943C242.722 308.958 240.565 308.685 238.5 308.179V361.794H273.5Z" fill="#FFAF10"/>
<path d="M254 361.794V308.958H244.943C242.722 308.958 240.565 308.685 238.5 308.179V361.794H254Z" fill="#EF9614"/>
<path d="M256 285.003C242.597 285.003 229.761 282.535 217.914 278.042V282.972C217.914 297.899 230.015 310 244.943 310H267.057C281.985 310 294.086 297.899 294.086 282.972V278.042C282.238 282.535 269.403 285.003 256 285.003Z" fill="#FFD00D"/>
<path d="M248.894 284.763C238.056 284.053 227.651 281.735 217.915 278.042V282.972C217.915 297.899 230.016 310 244.944 310H267.058C268.557 310 270.026 309.873 271.458 309.638C259.199 307.63 249.72 297.379 248.894 284.763Z" fill="#FFAF10"/>
<path d="M295 382V365C295 362.25 292.75 360 290 360H222C219.25 360 217 362.25 217 365V382H295Z" fill="#EF8318"/>
<path d="M247 382V365C247 362.25 249.25 360 252 360H222C219.25 360 217 362.25 217 365V382H247Z" fill="#DB722C"/>
<path d="M350.5 467V385C350.5 382.25 348.25 380 345.5 380H166.5C163.75 380 161.5 382.25 161.5 385V467H350.5Z" fill="#A05F33"/>
<path d="M177 467V385C177 382.25 179.25 380 182 380H166.5C163.75 380 161.5 382.25 161.5 385V467H177Z" fill="#87502A"/>
<path d="M323.022 445C323.022 447.75 320.772 450 318.022 450H193.978C191.228 450 188.978 447.75 188.978 445V403C188.978 400.25 191.228 398 193.978 398H318.022C320.772 398 323.022 400.25 323.022 403V445Z" fill="#293D7C"/>
<path d="M208.955 445V403C208.955 400.25 211.205 398 213.955 398H193.978C191.228 398 188.978 400.25 188.978 403V445C188.978 447.75 191.228 450 193.978 450H213.955C211.205 450 208.955 447.75 208.955 445Z" fill="#1A2B63"/>
<path d="M371.5 466H140.5C137.75 466 135.5 468.25 135.5 471V480.352C171.082 500.491 212.195 512 256 512C299.805 512 340.918 500.491 376.5 480.351V471C376.5 468.25 374.25 466 371.5 466Z" fill="#BF7E52"/>
<path d="M166 471C166 468.25 168.25 466 171 466H140.5C137.75 466 135.5 468.25 135.5 471V480.352C145.269 485.881 155.456 490.755 166 494.923V471Z" fill="#AA6B3F"/>
<path d="M424.255 25.5908H385.5V33.9998C385.5 36.2058 383.706 37.9998 381.5 37.9998H364.719C364.166 37.9998 363.719 38.4478 363.719 38.9998V50.5908H416.139C413.998 94.3938 394.195 133.632 363.719 161.323V177.285C363.719 183.093 363.25 188.793 362.361 194.354C410.084 160.791 441.332 105.313 441.332 42.6678C441.332 33.2508 433.671 25.5908 424.255 25.5908Z" fill="#FFAF10"/>
<path d="M148.282 177.285V161.323C117.807 133.632 98.002 94.3938 95.862 50.5908H148.282V38.9998C148.282 38.4478 147.834 37.9998 147.282 37.9998H130.5C128.294 37.9998 126.5 36.2058 126.5 33.9998V25.5908H87.745C78.329 25.5908 70.668 33.2518 70.668 42.6678C70.668 105.314 101.917 160.792 149.639 194.355C148.75 188.793 148.282 183.093 148.282 177.285Z" fill="#FFD00D"/>
<path d="M147.282 38V177.285C147.282 237.328 195.957 286.003 256 286.003C316.043 286.003 364.719 237.328 364.719 177.285V38H147.282Z" fill="#EF8318"/>
<path d="M169 177.285V37.0029H147.282V177.285C147.282 237.328 195.957 286.003 256 286.003C259.641 286.003 263.234 285.81 266.782 285.458C211.874 279.973 169 233.636 169 177.285Z" fill="#DB722C"/>
<path d="M256 229.5C296.869 229.5 330 196.369 330 155.5C330 114.631 296.869 81.5 256 81.5C215.131 81.5 182 114.631 182 155.5C182 196.369 215.131 229.5 256 229.5Z" fill="#DB722C"/>
<path d="M201 155.499C201 117.851 229.121 86.793 265.5 82.127C262.388 81.728 259.222 81.499 256 81.499C215.131 81.499 182 114.63 182 155.499C182 196.368 215.131 229.499 256 229.499C259.222 229.499 262.388 229.27 265.5 228.871C229.121 224.206 201 193.147 201 155.499Z" fill="#C95E23"/>
<path d="M281.756 201.698C280.533 201.699 279.282 201.367 278.039 200.713L257.892 190.122C257.588 189.962 256.91 189.775 256.001 189.775C255.091 189.775 254.413 189.962 254.107 190.122L233.962 200.713C232.718 201.367 231.467 201.698 230.245 201.698C228.389 201.698 226.728 200.941 225.57 199.567C224.285 198.044 223.797 195.93 224.194 193.615L228.042 171.183C228.211 170.198 227.588 168.281 226.873 167.583L210.575 151.696C208.453 149.627 207.684 147.063 208.465 144.661C209.246 142.259 211.375 140.638 214.307 140.212L236.829 136.94C237.817 136.796 239.449 135.611 239.891 134.715L249.963 114.305C251.275 111.648 253.475 110.125 256.001 110.125C258.527 110.125 260.728 111.648 262.038 114.305L272.111 134.715C272.553 135.611 274.184 136.797 275.172 136.94L297.695 140.212C300.626 140.638 302.756 142.259 303.536 144.661C304.317 147.063 303.549 149.627 301.428 151.695L285.129 167.583C284.413 168.28 283.79 170.198 283.959 171.183L287.806 193.615C288.203 195.93 287.715 198.044 286.431 199.567C285.272 200.941 283.611 201.698 281.756 201.698Z" fill="#FFD00D"/>
<path d="M240.7 191.471L244.869 167.164C245.052 166.097 244.377 164.018 243.602 163.263L225.941 146.048C223.772 143.933 222.927 141.343 223.546 138.871L214.305 140.214C211.373 140.64 209.244 142.261 208.463 144.663C207.682 147.065 208.451 149.629 210.573 151.698L226.871 167.585C227.586 168.282 228.209 170.2 228.04 171.185L224.192 193.617C223.796 195.932 224.284 198.046 225.568 199.569C226.727 200.943 228.387 201.7 230.243 201.7C231.466 201.7 232.716 201.369 233.96 200.715L241.431 196.787C240.627 195.285 240.361 193.449 240.7 191.471Z" fill="#FFAF10"/>
<path d="M386.5 34C386.5 36.75 384.25 39 381.5 39H130.5C127.75 39 125.5 36.75 125.5 34V5C125.5 2.25 127.75 0 130.5 0H381.5C384.25 0 386.5 2.25 386.5 5V34Z" fill="#FFD00D"/>
<path d="M156 34V5C156 2.25 158.25 0 161 0H130.5C127.75 0 125.5 2.25 125.5 5V34C125.5 36.75 127.75 39 130.5 39H161C158.25 39 156 36.75 156 34Z" fill="#FFAF10"/>
<path d="M127 331C125.713 331 124.569 330.179 124.158 328.96C118.402 311.906 114.094 307.598 97.041 301.843C95.821 301.431 95 300.287 95 299C95 297.713 95.821 296.569 97.04 296.158C114.093 290.403 118.401 286.094 124.157 269.041C124.569 267.822 125.712 267.001 126.999 267.001C128.286 267.001 129.43 267.822 129.841 269.041C135.597 286.094 139.905 290.403 156.958 296.158C158.177 296.57 158.999 297.713 158.999 299C158.999 300.287 158.178 301.431 156.958 301.843C139.905 307.598 135.597 311.906 129.841 328.96C129.431 330.179 128.287 331 127 331Z" fill="#FFD00D"/>
<path d="M398.5 362C397.957 362 397.475 361.654 397.301 361.139C394.873 353.945 393.055 352.127 385.861 349.699C385.346 349.525 385 349.043 385 348.5C385 347.957 385.346 347.474 385.861 347.301C393.055 344.873 394.872 343.055 397.301 335.861C397.475 335.346 397.957 335 398.5 335C399.043 335 399.525 335.346 399.699 335.861C402.127 343.055 403.945 344.873 411.139 347.301C411.653 347.475 412 347.957 412 348.5C412 349.043 411.654 349.525 411.139 349.699C403.945 352.127 402.127 353.945 399.699 361.139C399.526 361.654 399.043 362 398.5 362Z" fill="#FFD00D"/>
<path d="M401.5 267C400.475 267 399.562 266.346 399.234 265.375C394.648 251.785 391.214 248.352 377.625 243.766C376.655 243.437 376 242.526 376 241.5C376 240.475 376.655 239.563 377.625 239.235C391.215 234.649 394.648 231.215 399.234 217.626C399.562 216.654 400.474 216 401.5 216C402.526 216 403.436 216.654 403.766 217.626C408.352 231.215 411.786 234.648 425.375 239.235C426.345 239.563 427 240.475 427 241.5C427 242.526 426.345 243.437 425.375 243.766C411.785 248.353 408.352 251.785 403.766 265.375C403.436 266.346 402.525 267 401.5 267Z" fill="white"/>
<path d="M105 382C104.598 382 104.24 381.744 104.111 381.363C102.313 376.033 100.966 374.687 95.6373 372.889C95.2569 372.76 95 372.402 95 372C95 371.598 95.2569 371.24 95.6373 371.112C100.967 369.313 102.313 367.967 104.111 362.638C104.24 362.256 104.598 362 105 362C105.402 362 105.759 362.256 105.889 362.638C107.687 367.967 109.034 369.313 114.363 371.112C114.743 371.24 115 371.598 115 372C115 372.402 114.743 372.76 114.363 372.889C109.033 374.687 107.687 376.033 105.889 381.363C105.759 381.744 105.402 382 105 382Z" fill="white"/>
<path d="M283 419H229C226.239 419 224 416.761 224 414C224 411.239 226.239 409 229 409H283C285.762 409 288 411.239 288 414C288 416.761 285.762 419 283 419Z" fill="white"/>
<path d="M271 437H241C238.239 437 236 434.761 236 432C236 429.239 238.239 427 241 427H271C273.762 427 276 429.239 276 432C276 434.761 273.762 437 271 437Z" fill="white"/>
<path d="M195 80C194.035 80 193.177 79.384 192.868 78.47C188.551 65.68 185.32 62.449 172.53 58.132C171.616 57.823 171 56.965 171 56C171 55.035 171.616 54.177 172.53 53.868C185.32 49.552 188.551 46.32 192.868 33.53C193.177 32.616 194.035 32 195 32C195.965 32 196.823 32.616 197.132 33.53C201.449 46.32 204.68 49.551 217.47 53.868C218.384 54.177 219 55.035 219 56C219 56.965 218.384 57.823 217.47 58.132C204.68 62.449 201.449 65.68 197.132 78.47C196.823 79.384 195.965 80 195 80Z" fill="white"/>
</svg>
